<svg xmlns="http://www.w3.org/2000/svg" width="24" height="20" viewBox="0 0 24 20"><g transform="translate(0 -2)"><path d="M12,14H5a4.951,4.951,0,0,0-5,5v2a.945.945,0,0,0,1,1,.945.945,0,0,0,1-1V19a2.946,2.946,0,0,1,3-3h7a2.946,2.946,0,0,1,3,3v2a1,1,0,0,0,2,0V19A4.951,4.951,0,0,0,12,14Z" fill="#fff"/><path d="M8.5,12a4.951,4.951,0,0,0,5-5,4.951,4.951,0,0,0-5-5,4.951,4.951,0,0,0-5,5A4.951,4.951,0,0,0,8.5,12Zm0-8a2.946,2.946,0,0,1,3,3,2.946,2.946,0,0,1-3,3,2.946,2.946,0,0,1-3-3A2.946,2.946,0,0,1,8.5,4Z" fill="#fff"/><path d="M23,10H21V8a1,1,0,0,0-2,0v2H17a.945.945,0,0,0-1,1,.945.945,0,0,0,1,1h2v2a1,1,0,0,0,2,0V12h2a.945.945,0,0,0,1-1A.945.945,0,0,0,23,10Z" fill="#fff"/></g></svg>