<svg xmlns="http://www.w3.org/2000/svg" width="24" height="22" viewBox="0 0 24 22"><g transform="translate(0 -1)"><path d="M23,6H21V4a1,1,0,0,0-2,0V6H17a.945.945,0,0,0-1,1,.945.945,0,0,0,1,1h2v2a1,1,0,0,0,2,0V8h2a.945.945,0,0,0,1-1A.945.945,0,0,0,23,6Z" fill="#fff"/><path d="M16,10h0v6H3.5a2.822,2.822,0,0,0-1.5.4V4.5A1.538,1.538,0,0,1,3.5,3H16V4h2V2a.945.945,0,0,0-1-1H3.5A3.543,3.543,0,0,0,0,4.5v15A3.543,3.543,0,0,0,3.5,23H17a.945.945,0,0,0,1-1V10Zm0,11H3.5a1.5,1.5,0,0,1,0-3H16Z" fill="#fff"/></g></svg>